<svg width="49" height="60" viewBox="0 0 49 60" fill="none" xmlns="http://www.w3.org/2000/svg">
<path d="M33.1286 9.62612C35.3626 6.9366 36.4696 3.48722 36.218 0C32.7941 0.330471 29.6335 1.98125 27.4061 4.60242C26.2969 5.85795 25.4468 7.32027 24.9046 8.90536C24.3623 10.4905 24.1387 12.1671 24.2465 13.8389C25.9521 13.8723 27.6421 13.5092 29.1835 12.7781C30.7248 12.0471 32.0753 10.9681 33.1286 9.62612ZM36.0074 14.4743C31.0924 14.1899 26.9497 17.2828 24.5975 17.2828C22.2453 17.2828 18.6644 14.6288 14.8026 14.699C12.274 14.7702 9.80835 15.5038 7.6521 16.8265C5.49584 18.1492 3.72449 20.0146 2.51506 22.2363C-2.75102 31.3639 1.11077 44.9605 6.23643 52.3925C8.72905 55.9242 11.7132 60.1334 15.6803 59.9965C19.6474 59.8596 20.8762 57.5391 25.405 57.5391C29.9338 57.5391 31.2679 59.9965 35.1999 59.9087C39.1319 59.821 41.8703 56.37 44.3278 52.5364C46.1004 49.9179 47.484 47.0563 48.4353 44.0407C46.0746 42.9956 44.0664 41.2904 42.6524 39.1303C41.2385 36.9703 40.4792 34.4475 40.466 31.8659C40.4951 29.5753 41.0985 27.3285 42.2209 25.3315C43.3433 23.3345 44.9489 21.651 46.8906 20.4353C45.6569 18.6714 44.0334 17.2154 42.1459 16.1804C40.2585 15.1454 38.158 14.5592 36.0074 14.4673" fill="#000008"/>
</svg>
