<svg width="15" height="15" viewBox="0 0 15 15" fill="none" xmlns="http://www.w3.org/2000/svg">
<path d="M2.59387 11.7549C2.59387 12.7766 3.12122 13.3039 4.12882 13.3039H8.53591C9.54351 13.3039 10.0709 12.7719 10.0709 11.7549V10.8838H10.8713C11.8789 10.8838 12.4062 10.3518 12.4062 9.33473V2.87006C12.4062 1.84834 11.8789 1.31628 10.8713 1.31628H6.4642C5.4566 1.31628 4.92925 1.84834 4.92925 2.87006V3.73642H4.12882C3.12122 3.73642 2.59387 4.27318 2.59387 5.2902V11.7549ZM7.55655 3.00661C7.34938 3.00661 7.23638 2.86536 7.23638 2.70998V2.60168C7.23638 2.46043 7.33997 2.30035 7.55655 2.30035H9.77422C9.99552 2.30035 10.0944 2.46043 10.0944 2.60168V2.70998C10.0944 2.86536 9.9861 3.00661 9.77422 3.00661H7.55655ZM3.53085 11.6937V5.35141C3.53085 4.91823 3.75685 4.6781 4.21357 4.6781H5.64964V7.23948C5.64964 7.92221 5.98394 8.2518 6.66195 8.2518H9.13388V11.6937C9.13388 12.1268 8.90787 12.367 8.45115 12.367H4.20886C3.75685 12.367 3.53085 12.1268 3.53085 11.6937ZM6.75141 7.42782C6.55837 7.42782 6.47362 7.34778 6.47362 7.15002V4.85702L9.00675 7.42782H6.75141Z" fill="#9A9A9A"/>
</svg>
