<svg width="10" height="11" viewBox="0 0 10 11" fill="none" xmlns="http://www.w3.org/2000/svg">
<path d="M0.16318 9.84304C0.383896 10.0575 0.749651 10.0575 0.964062 9.84304L5 5.80711L9.03593 9.84304C9.25037 10.0575 9.62243 10.0638 9.83682 9.84304C10.0512 9.62236 10.0512 9.26289 9.83682 9.0485L5.80088 5.00624L9.83682 0.970298C10.0512 0.755888 10.0576 0.390132 9.83682 0.175722C9.61608 -0.0449932 9.25037 -0.0449932 9.03593 0.175722L5 4.21166L0.964062 0.175722C0.749651 -0.0449932 0.377589 -0.0512993 0.16318 0.175722C-0.0512289 0.396437 -0.0512289 0.755888 0.16318 0.970298L4.19912 5.00624L0.16318 9.0485C-0.0512289 9.26289 -0.0575353 9.62865 0.16318 9.84304Z" fill="#9A9A9A"/>
</svg>
