<svg width="79" height="80" viewBox="0 0 79 80" fill="none" xmlns="http://www.w3.org/2000/svg">
<path d="M39.9997 32.7273V48.2183H61.527C60.5817 53.2002 57.745 57.4186 53.4905 60.2549L66.4724 70.3278C74.036 63.3461 78.3997 53.0914 78.3997 40.9096C78.3997 38.0733 78.1453 35.3457 77.6724 32.7278L39.9997 32.7273Z" fill="#4285F4"/>
<path d="M17.5822 47.6137L14.6543 49.855L4.29037 57.9276C10.8722 70.9821 24.3622 80.0005 39.9986 80.0005C50.7984 80.0005 59.8529 76.4368 66.4713 70.3278L53.4894 60.255C49.9258 62.655 45.3802 64.1097 39.9986 64.1097C29.5986 64.1097 20.7624 57.0915 17.5985 47.6368L17.5822 47.6137Z" fill="#34A853"/>
<path d="M4.29063 22.0729C1.56349 27.4545 0 33.5274 0 40C0 46.4727 1.56323 52.546 4.29037 57.9276C4.29037 57.9637 17.6001 47.5998 17.6001 47.5998C16.8001 45.1998 16.3272 42.6545 16.3272 39.9996C16.3272 37.3447 16.8001 34.7994 17.6001 32.3994L4.29063 22.0729Z" fill="#FBBC05"/>
<path d="M39.9994 15.9274C45.8905 15.9274 51.1268 17.9637 55.3086 21.891L66.7631 10.4366C59.8176 3.96391 50.7997 0 39.9994 0C24.3631 0 10.8725 8.98189 4.29063 22.0729L17.5994 32.4002C20.7629 22.9455 29.5994 15.9274 39.9994 15.9274Z" fill="#EA4335"/>
</svg>
