<svg width="17" height="17" viewBox="0 0 17 17" fill="none" xmlns="http://www.w3.org/2000/svg">
<path d="M0.613668 12.6863C0.237099 12.6443 0 12.3782 0 12C0 11.6218 0.237099 11.3557 0.613668 11.3137C3.90516 10.8515 3.90516 10.8515 4.30962 7.61625C4.36541 7.2381 4.6304 7 4.99303 7C5.3696 7 5.63459 7.2381 5.69038 7.61625C6.09484 10.8515 6.09484 10.8515 9.38633 11.3137C9.7629 11.3557 10 11.6218 10 12C10 12.3782 9.7629 12.6443 9.38633 12.6863C6.09484 13.1485 6.09484 13.1485 5.69038 16.3838C5.63459 16.7619 5.3696 17 4.99303 17C4.6304 17 4.36541 16.7619 4.30962 16.3838C3.90516 13.1485 3.90516 13.1485 0.613668 12.6863Z" fill="#AD00FF"/>
<path d="M7.61367 5.68627C7.2371 5.64426 7 5.37815 7 5C7 4.62185 7.2371 4.35574 7.61367 4.31373C10.9052 3.85154 10.9052 3.85154 11.3096 0.616246C11.3654 0.238095 11.6304 0 11.993 0C12.3696 0 12.6346 0.238095 12.6904 0.616246C13.0948 3.85154 13.0948 3.85154 16.3863 4.31373C16.7629 4.35574 17 4.62185 17 5C17 5.37815 16.7629 5.64426 16.3863 5.68627C13.0948 6.14846 13.0948 6.14846 12.6904 9.38375C12.6346 9.7619 12.3696 10 11.993 10C11.6304 10 11.3654 9.7619 11.3096 9.38375C10.9052 6.14846 10.9052 6.14846 7.61367 5.68627Z" fill="#005BFF"/>
</svg>
