<svg width="19" height="19" viewBox="0 0 19 19" fill="none" xmlns="http://www.w3.org/2000/svg">
<path d="M9.50065 17.4166C8.41871 17.4166 7.39614 17.2088 6.43294 16.7931C5.46975 16.3775 4.6286 15.8102 3.90951 15.0911C3.19041 14.372 2.62305 13.5308 2.20742 12.5676C1.7918 11.6044 1.58398 10.5819 1.58398 9.49992C1.58398 8.40478 1.7918 7.37561 2.20742 6.41242C2.62305 5.44922 3.19041 4.61138 3.90951 3.89888C4.6286 3.18638 5.46975 2.62231 6.43294 2.20669C7.39614 1.79106 8.41871 1.58325 9.50065 1.58325C10.5958 1.58325 11.625 1.79106 12.5882 2.20669C13.5513 2.62231 14.3892 3.18638 15.1017 3.89888C15.8142 4.61138 16.3783 5.44922 16.7939 6.41242C17.2095 7.37561 17.4173 8.40478 17.4173 9.49992C17.4173 10.5819 17.2095 11.6044 16.7939 12.5676C16.3783 13.5308 15.8142 14.372 15.1017 15.0911C14.3892 15.8102 13.5513 16.3775 12.5882 16.7931C11.625 17.2088 10.5958 17.4166 9.50065 17.4166ZM9.50065 16.2291C11.3743 16.2291 12.9642 15.5727 14.2704 14.2598C15.5767 12.947 16.2298 11.3603 16.2298 9.49992C16.2298 7.62631 15.5767 6.03638 14.2704 4.73013C12.9642 3.42388 11.3743 2.77075 9.50065 2.77075C7.64023 2.77075 6.0536 3.42388 4.74076 4.73013C3.42791 6.03638 2.77148 7.62631 2.77148 9.49992C2.77148 11.3603 3.42791 12.947 4.74076 14.2598C6.0536 15.5727 7.64023 16.2291 9.50065 16.2291Z" fill="#E0E0E0"/>
</svg>
