<svg width="15" height="15" viewBox="0 0 15 15" fill="none" xmlns="http://www.w3.org/2000/svg">
<path d="M3.80873 12.5506C4.07711 12.5506 4.31253 12.4376 4.63742 12.1551L6.14882 10.8085C6.49724 11.171 7.01988 11.364 7.67435 11.364H9.28463L10.8525 12.7107C11.1633 12.9743 11.3846 13.1203 11.6388 13.1203C12.0155 13.1203 12.2368 12.8519 12.2368 12.4423V11.364H12.4534C13.6399 11.364 14.4309 10.639 14.4309 9.41947V6.54262C14.4309 5.3043 13.6258 4.56037 12.4157 4.56037H11.5965V4.25432C11.5965 2.97363 10.8102 2.21558 9.52005 2.21558H2.64575C1.39331 2.21558 0.569336 2.97363 0.569336 4.25432V8.66141C0.569336 9.92327 1.37919 10.6719 2.60808 10.6719H3.20135V11.8773C3.20135 12.2916 3.42735 12.5506 3.80873 12.5506ZM4.04415 10.2105C4.04415 9.92798 3.86994 9.78202 3.63452 9.78202H2.75875C1.97716 9.78202 1.50631 9.34413 1.50631 8.52958V4.35791C1.50631 3.54335 1.98186 3.10076 2.75875 3.10076H9.40234C10.1839 3.10076 10.6548 3.54335 10.6548 4.35791V4.56037H7.67435C6.42191 4.56037 5.65914 5.3043 5.65914 6.54262V9.41947C5.65914 9.61722 5.67798 9.79614 5.71565 9.96565L4.04415 11.5288V10.2105ZM11.3987 12.0986L9.92498 10.7614C9.71781 10.573 9.5436 10.4883 9.2658 10.4883H7.77323C7.03401 10.4883 6.5867 10.0786 6.5867 9.29705V6.63208C6.5867 5.8599 7.03401 5.44085 7.77323 5.44085H12.3122C13.0561 5.44085 13.5034 5.8599 13.5034 6.63208V9.29705C13.5034 10.0739 13.0514 10.4883 12.3122 10.4883H11.8036C11.5729 10.4883 11.3987 10.6295 11.3987 10.912V12.0986Z" fill="#9A9A9A"/>
</svg>
