<svg width="15" height="15" viewBox="0 0 15 15" fill="none" xmlns="http://www.w3.org/2000/svg">
<path d="M7.49522 12.188C10.1649 12.188 12.3684 9.98448 12.3684 7.3148C12.3684 4.97942 10.6781 3.00188 8.46987 2.54516V1.85302C8.46987 1.49518 8.20149 1.3916 7.90956 1.60348L6.31812 2.72879C6.07799 2.903 6.07799 3.16668 6.31812 3.33618L7.90486 4.4662C8.19678 4.67808 8.46987 4.58391 8.46987 4.21666V3.53864C10.1555 3.96711 11.3891 5.48793 11.3891 7.3148C11.3891 9.47597 9.65639 11.2134 7.49522 11.2134C5.33405 11.2134 3.59664 9.47597 3.60135 7.3148C3.60606 6.05765 4.19462 4.96059 5.11747 4.24961C5.33876 4.05657 5.40939 3.77877 5.23989 3.54806C5.08451 3.32676 4.77846 3.28909 4.5242 3.49627C3.38006 4.3532 2.62671 5.79398 2.62671 7.3148C2.62671 9.98448 4.83025 12.188 7.49522 12.188Z" fill="#9A9A9A"/>
</svg>
