<svg width="15" height="15" viewBox="0 0 15 15" fill="none" xmlns="http://www.w3.org/2000/svg">
<path d="M5.33878 12.1974H9.66582C10.3909 12.1974 10.8571 11.7595 10.8947 11.0345L11.2102 4.25432H11.7281C11.9682 4.25432 12.1519 4.06598 12.1519 3.83056C12.1519 3.59514 11.9635 3.41622 11.7281 3.41622H9.63757V2.70995C9.63757 1.98485 9.17615 1.5611 8.38984 1.5611H6.60064C5.81433 1.5611 5.35291 1.98485 5.35291 2.70995V3.41622H3.27178C3.03636 3.41622 2.84802 3.59984 2.84802 3.83056C2.84802 4.07069 3.03636 4.25432 3.27178 4.25432H3.78971L4.10517 11.0345C4.14284 11.7643 4.60427 12.1974 5.33878 12.1974ZM6.23338 2.75233C6.23338 2.5122 6.40288 2.35682 6.66185 2.35682H8.32863C8.58759 2.35682 8.7571 2.5122 8.7571 2.75233V3.41622H6.23338V2.75233ZM5.43295 11.3546C5.17398 11.3546 4.98565 11.1616 4.97152 10.8838L4.65606 4.25432H10.3297L10.0237 10.8838C10.0142 11.1663 9.83062 11.3546 9.56224 11.3546H5.43295ZM6.11096 10.5966C6.31342 10.5966 6.44055 10.4694 6.43584 10.2811L6.29459 5.35609C6.28988 5.16775 6.15805 5.04533 5.965 5.04533C5.76725 5.04533 5.64012 5.17246 5.64483 5.3608L5.78608 10.2858C5.79079 10.4741 5.92262 10.5966 6.11096 10.5966ZM7.49995 10.5966C7.6977 10.5966 7.83425 10.4741 7.83425 10.2858V5.3608C7.83425 5.17246 7.6977 5.04533 7.49995 5.04533C7.30219 5.04533 7.17036 5.17246 7.17036 5.3608V10.2858C7.17036 10.4741 7.30219 10.5966 7.49995 10.5966ZM8.88893 10.6013C9.07727 10.6013 9.20911 10.4741 9.21381 10.2858L9.35507 5.3608C9.35978 5.17246 9.23265 5.05004 9.03489 5.05004C8.84185 5.05004 8.71001 5.17246 8.7053 5.3608L8.56405 10.2858C8.55934 10.4694 8.68647 10.6013 8.88893 10.6013Z" fill="#1C1C1E"/>
</svg>
